<?xml version="1.0" standalone="no"?>
<!DOCTYPE svg PUBLIC "-//W3C//DTD SVG 20010904//EN"
 "http://www.w3.org/TR/2001/REC-SVG-20010904/DTD/svg10.dtd">
<svg version="1.0" xmlns="http://www.w3.org/2000/svg"
 width="311.000000pt" height="162.000000pt" viewBox="0 0 311.000000 162.000000"
 preserveAspectRatio="xMidYMid meet">

<g transform="translate(0.000000,162.000000) scale(0.100000,-0.100000)"
fill="#000000" stroke="none">
<path d="M0 810 l0 -810 1555 0 1555 0 0 810 0 810 -1555 0 -1555 0 0 -810z
m1843 466 c40 -17 73 -53 82 -88 7 -27 5 -28 -28 -28 -19 0 -47 -3 -63 -6 -24
-4 -31 -1 -39 18 -20 47 -100 49 -100 2 0 -13 11 -21 35 -27 168 -43 210 -74
210 -154 0 -58 -28 -105 -78 -129 -53 -27 -184 -26 -231 1 -44 26 -71 63 -74
100 -2 30 -2 30 59 33 59 3 62 2 68 -22 8 -32 37 -48 78 -44 38 4 58 30 42 56
-6 9 -49 29 -95 44 -104 34 -139 67 -139 131 0 53 21 84 74 108 49 22 152 25
199 5z m-1257 -15 c37 -23 59 -78 50 -124 -7 -34 -51 -87 -73 -87 -19 0 -16
-13 6 -27 16 -10 101 -151 101 -168 0 -3 -33 -5 -74 -5 l-75 0 -41 75 c-37 67
-70 105 -92 105 -5 0 -8 -40 -8 -90 l0 -90 -65 0 -65 0 0 215 0 215 153 0
c132 0 156 -3 183 -19z m-56 -506 c20 -10 39 -32 50 -58 l19 -42 -22 -7 c-12
-3 -41 -6 -64 -7 -33 -1 -45 4 -53 19 -23 42 -100 46 -100 4 0 -17 17 -25 115
-53 88 -25 125 -60 132 -123 4 -34 0 -50 -19 -77 -40 -59 -69 -74 -156 -79
-97 -5 -160 18 -192 70 -32 52 -27 74 18 82 61 10 82 7 89 -11 13 -36 36 -53
73 -53 42 0 65 20 55 48 -6 21 -28 32 -119 57 -151 42 -170 189 -31 241 50 18
160 12 205 -11z m462 15 c44 -13 93 -52 113 -91 8 -15 15 -30 15 -33 0 -2 -25
-10 -57 -16 -52 -11 -58 -11 -72 8 -39 48 -95 50 -131 5 -16 -20 -20 -41 -20
-95 0 -60 3 -72 25 -93 32 -33 78 -33 110 0 14 13 25 31 25 40 0 18 12 19 70
1 25 -7 46 -19 47 -27 2 -8 -7 -32 -20 -54 -31 -55 -92 -85 -172 -85 -151 2
-220 72 -220 225 0 63 5 89 22 121 44 82 160 123 265 94z m1077 -19 c21 -11
48 -32 59 -46 l20 -25 16 25 c39 60 162 89 258 61 41 -12 65 -27 92 -56 l36
-40 0 50 0 50 70 0 70 0 0 -165 0 -165 105 0 105 0 0 -50 0 -50 -175 0 -175 0
0 53 0 52 -21 -32 c-29 -46 -109 -83 -178 -83 -78 0 -126 16 -170 55 l-38 35
-24 -27 c-36 -39 -96 -63 -159 -63 -82 0 -130 17 -176 64 -33 33 -44 53 -54
99 -27 130 31 243 140 276 50 15 152 5 199 -18z m-709 -56 l0 -75 75 0 75 0 0
75 0 75 65 0 65 0 0 -215 0 -215 -65 0 -65 0 0 85 0 85 -75 0 -75 0 0 -85 0
-85 -65 0 -65 0 0 215 0 215 65 0 65 0 0 -75z"/>
<path d="M380 1150 l0 -40 49 0 c54 0 74 15 69 52 -3 21 -9 23 -60 26 l-58 3
0 -41z"/>
<path d="M1890 650 c-26 -26 -34 -60 -28 -122 4 -40 12 -57 32 -75 57 -48 130
-16 142 62 8 58 -2 111 -27 136 -26 26 -92 26 -119 -1z"/>
<path d="M2287 658 c-37 -29 -48 -113 -23 -173 25 -59 84 -73 133 -31 26 23
28 29 28 101 0 69 -3 79 -24 96 -27 22 -89 25 -114 7z"/>
</g>
</svg>
